<svg id="Logo" xmlns="http://www.w3.org/2000/svg" xmlns:xlink="http://www.w3.org/1999/xlink" width="265.115" height="66.108" viewBox="0 0 265.115 66.108">
  <defs>
    <clipPath id="clip-path">
      <rect id="Rectangle_5965" data-name="Rectangle 5965" width="265.115" height="66.108" transform="translate(0 0)" fill="none"/>
    </clipPath>
  </defs>
  <g id="Group_550" data-name="Group 550" transform="translate(0 0)">
    <g id="Group_549" data-name="Group 549" clip-path="url(#clip-path)">
      <text id="CONTOSO" transform="translate(34.072 45.902)" fill="#51b60d" font-size="40.973" font-family="SegoeUI-Bold, Segoe UI" font-weight="700"><tspan x="0" y="0" letter-spacing="-0.012em">C</tspan><tspan y="0">ON</tspan><tspan y="0" letter-spacing="-0.037em">T</tspan><tspan y="0">OSO</tspan></text>
      <text id="GROCERIES_" data-name="GROCERIES " transform="translate(70.96 62.139)" fill="#fff" font-size="9.217" font-family="SegoeUI-Bold, Segoe UI" font-weight="700"><tspan x="0" y="0">G</tspan><tspan y="0" letter-spacing="-0.009em">R</tspan><tspan y="0">OCERIES </tspan></text>
      <text id="_" data-name="•" transform="translate(122.641 62.139)" fill="#fff" font-size="9.217" font-family="SegoeUI-Bold, Segoe UI" font-weight="700"><tspan x="0" y="0">•</tspan></text>
      <text id="_DELI_BAKERY" data-name=" DELI • BAKERY" transform="translate(126.53 62.139)" fill="#fff" font-size="9.217" font-family="SegoeUI-Bold, Segoe UI" font-weight="700"><tspan x="0" y="0" xml:space="preserve"> DELI • BAKE</tspan><tspan y="0" letter-spacing="-0.009em">R</tspan><tspan y="0">Y</tspan></text>
    </g>
  </g>
  <path id="Path_2528" data-name="Path 2528" d="M67.036,56.5H9.541l14-25-14-26h246l-15,26,15,25H195.036" transform="translate(0 0)" fill="none" stroke="#fff" stroke-width="2"/>
  <g id="Group_552" data-name="Group 552" transform="translate(0 0)">
    <g id="Group_551" data-name="Group 551" clip-path="url(#clip-path)">
      <path id="Path_2529" data-name="Path 2529" d="M67.036,60.5H2.541l16-29-16-30h260l-17,30,16,29h-66.5" fill="none" stroke="#fff" stroke-width="3"/>
    </g>
  </g>
</svg>
