<svg width="187" height="30" viewBox="0 0 187 30" fill="none" xmlns="http://www.w3.org/2000/svg">
<path d="M9.53903 25.0919C8.70143 25.4973 7.60775 25.7001 6.25799 25.7001C4.49743 25.7001 3.11299 25.1826 2.10467 24.1476C1.09635 23.1126 0.592188 21.7335 0.592188 20.0103C0.592188 18.175 1.1577 16.6865 2.28873 15.5448C3.42509 14.4031 4.89755 13.8323 6.70613 13.8323C7.82648 13.8323 8.77078 13.9737 9.53903 14.2564V16.7452C8.77078 16.2864 7.89584 16.057 6.91419 16.057C5.83652 16.057 4.96691 16.3958 4.30537 17.0733C3.64382 17.7509 3.31305 18.6685 3.31305 19.8262C3.31305 20.9359 3.62515 21.8215 4.24935 22.483C4.87355 23.1393 5.71381 23.4674 6.77015 23.4674C7.77847 23.4674 8.70143 23.2219 9.53903 22.7311V25.0919ZM16.1811 25.7001C14.5379 25.7001 13.1989 25.1666 12.1639 24.0996C11.1289 23.0272 10.6114 21.6321 10.6114 19.9142C10.6114 18.1003 11.1369 16.6332 12.1879 15.5128C13.2389 14.3925 14.6313 13.8323 16.3652 13.8323C18.003 13.8323 19.3261 14.3685 20.3345 15.4408C21.3481 16.5131 21.8549 17.9269 21.8549 19.6822C21.8549 21.4854 21.3294 22.9392 20.2784 24.0435C19.2328 25.1479 17.867 25.7001 16.1811 25.7001ZM16.2932 16.057C15.3862 16.057 14.666 16.3984 14.1325 17.0813C13.599 17.7589 13.3322 18.6578 13.3322 19.7782C13.3322 20.9145 13.599 21.8135 14.1325 22.475C14.666 23.1366 15.3649 23.4674 16.2291 23.4674C17.1201 23.4674 17.827 23.1473 18.3498 22.5071C18.8727 21.8615 19.1341 20.9679 19.1341 19.8262C19.1341 18.6365 18.8807 17.7109 18.3738 17.0493C17.867 16.3878 17.1734 16.057 16.2932 16.057ZM34.0908 25.5H31.482L26.7525 18.2897C26.4751 17.8682 26.283 17.5508 26.1763 17.3374H26.1443C26.187 17.7429 26.2083 18.3617 26.2083 19.194V25.5H23.7675V14.0244H26.5524L31.1059 21.0106C31.3139 21.3253 31.506 21.6374 31.6821 21.9469H31.7141C31.6714 21.6801 31.65 21.1546 31.65 20.3704V14.0244H34.0908V25.5ZM44.7742 16.129H41.5012V25.5H38.9083V16.129H35.6513V14.0244H44.7742V16.129ZM50.56 25.7001C48.9169 25.7001 47.5778 25.1666 46.5428 24.0996C45.5078 23.0272 44.9903 21.6321 44.9903 19.9142C44.9903 18.1003 45.5158 16.6332 46.5668 15.5128C47.6178 14.3925 49.0102 13.8323 50.7441 13.8323C52.382 13.8323 53.705 14.3685 54.7134 15.4408C55.727 16.5131 56.2338 17.9269 56.2338 19.6822C56.2338 21.4854 55.7083 22.9392 54.6573 24.0435C53.6117 25.1479 52.2459 25.7001 50.56 25.7001ZM50.6721 16.057C49.7651 16.057 49.0449 16.3984 48.5114 17.0813C47.9779 17.7589 47.7111 18.6578 47.7111 19.7782C47.7111 20.9145 47.9779 21.8135 48.5114 22.475C49.0449 23.1366 49.7438 23.4674 50.6081 23.4674C51.499 23.4674 52.2059 23.1473 52.7287 22.5071C53.2516 21.8615 53.513 20.9679 53.513 19.8262C53.513 18.6365 53.2596 17.7109 52.7527 17.0493C52.2459 16.3878 51.5524 16.057 50.6721 16.057ZM57.6183 25.0599V22.499C58.0824 22.8885 58.5866 23.1819 59.1308 23.3793C59.6749 23.5714 60.2244 23.6674 60.7793 23.6674C61.1047 23.6674 61.3875 23.6381 61.6276 23.5794C61.873 23.5207 62.0757 23.4407 62.2357 23.3393C62.4011 23.2326 62.5238 23.1099 62.6039 22.9712C62.6839 22.8272 62.7239 22.6724 62.7239 22.5071C62.7239 22.283 62.6599 22.0829 62.5318 21.9069C62.4038 21.7308 62.2277 21.5681 62.0037 21.4187C61.7849 21.2693 61.5235 21.1253 61.2194 20.9866C60.9153 20.8479 60.5872 20.7065 60.2351 20.5624C59.3388 20.189 58.6693 19.7328 58.2265 19.194C57.789 18.6552 57.5703 18.0043 57.5703 17.2414C57.5703 16.6439 57.6903 16.1317 57.9304 15.7049C58.1705 15.2728 58.4959 14.918 58.9067 14.6406C59.3228 14.3631 59.803 14.1604 60.3471 14.0324C60.8913 13.899 61.4675 13.8323 62.0757 13.8323C62.6732 13.8323 63.2014 13.8696 63.6602 13.9443C64.1243 14.0137 64.5511 14.1231 64.9406 14.2724V16.6652C64.7485 16.5318 64.5378 16.4145 64.3084 16.3131C64.0843 16.2117 63.8523 16.129 63.6122 16.065C63.3721 15.9957 63.132 15.945 62.892 15.913C62.6572 15.8809 62.4331 15.8649 62.2197 15.8649C61.9263 15.8649 61.6596 15.8943 61.4195 15.953C61.1794 16.0063 60.9767 16.0837 60.8113 16.185C60.6459 16.2864 60.5179 16.4091 60.4272 16.5532C60.3365 16.6919 60.2911 16.8493 60.2911 17.0253C60.2911 17.2174 60.3418 17.3908 60.4432 17.5455C60.5445 17.6949 60.6886 17.8389 60.8753 17.9776C61.062 18.111 61.2888 18.2444 61.5555 18.3777C61.8223 18.5058 62.1237 18.6392 62.4598 18.7779C62.9186 18.9699 63.3294 19.1753 63.6922 19.3941C64.0603 19.6075 64.3751 19.8502 64.6365 20.1223C64.8979 20.3944 65.098 20.7065 65.2367 21.0586C65.3754 21.4054 65.4448 21.8108 65.4448 22.275C65.4448 22.9152 65.3221 23.454 65.0766 23.8915C64.8366 24.3236 64.5085 24.6757 64.0923 24.9478C63.6762 25.2146 63.1907 25.4066 62.6359 25.524C62.0864 25.6414 61.5048 25.7001 60.8913 25.7001C60.2618 25.7001 59.6616 25.6467 59.0908 25.54C58.5252 25.4333 58.0344 25.2733 57.6183 25.0599ZM72.1829 25.7001C70.5397 25.7001 69.2006 25.1666 68.1656 24.0996C67.1306 23.0272 66.6131 21.6321 66.6131 19.9142C66.6131 18.1003 67.1386 16.6332 68.1896 15.5128C69.2406 14.3925 70.6331 13.8323 72.367 13.8323C74.0048 13.8323 75.3279 14.3685 76.3362 15.4408C77.3499 16.5131 77.8567 17.9269 77.8567 19.6822C77.8567 21.4854 77.3312 22.9392 76.2802 24.0435C75.2345 25.1479 73.8688 25.7001 72.1829 25.7001ZM72.2949 16.057C71.388 16.057 70.6678 16.3984 70.1343 17.0813C69.6008 17.7589 69.334 18.6578 69.334 19.7782C69.334 20.9145 69.6008 21.8135 70.1343 22.475C70.6678 23.1366 71.3666 23.4674 72.2309 23.4674C73.1219 23.4674 73.8288 23.1473 74.3516 22.5071C74.8744 21.8615 75.1358 20.9679 75.1358 19.8262C75.1358 18.6365 74.8824 17.7109 74.3756 17.0493C73.8688 16.3878 73.1752 16.057 72.2949 16.057Z" fill="white"/>
<path d="M50.765 11.8353C52.1581 8.33188 56.1329 6.60347 59.6453 7.97374C58.2522 11.4771 54.2774 13.2055 50.765 11.8353Z" fill="url(#paint0_linear_1152_14451)"/>
<path d="M48.9225 11.6347C46.5299 7.90073 47.604 2.91691 51.3222 0.5C53.7149 4.23392 52.6408 9.21774 48.9225 11.6347Z" fill="url(#paint1_linear_1152_14451)"/>
<path d="M97.9766 25.5H95.4453V20.9375H90.8047V25.5H88.2812V14.2969H90.8047V18.7656H95.4453V14.2969H97.9766V25.5ZM107.922 17.5L104.672 26.1406C103.891 28.2188 102.714 29.2578 101.141 29.2578C100.542 29.2578 100.049 29.1901 99.6641 29.0547V27.0859C99.9922 27.2786 100.349 27.375 100.734 27.375C101.37 27.375 101.812 27.0755 102.062 26.4766L102.484 25.4844L99.2344 17.5H101.969L103.461 22.3672C103.555 22.6693 103.628 23.026 103.68 23.4375H103.711C103.758 23.1354 103.844 22.7839 103.969 22.3828L105.477 17.5H107.922ZM111.414 24.5703H111.383V29.1797H108.914V17.5H111.383V18.7031H111.414C112.023 17.7708 112.88 17.3047 113.984 17.3047C115.021 17.3047 115.82 17.6615 116.383 18.375C116.951 19.0833 117.234 20.0495 117.234 21.2734C117.234 22.6068 116.904 23.6771 116.242 24.4844C115.586 25.2917 114.711 25.6953 113.617 25.6953C112.654 25.6953 111.919 25.3203 111.414 24.5703ZM111.344 21.2891V21.9297C111.344 22.4818 111.49 22.9323 111.781 23.2812C112.073 23.6302 112.456 23.8047 112.93 23.8047C113.492 23.8047 113.927 23.5885 114.234 23.1562C114.547 22.7188 114.703 22.1016 114.703 21.3047C114.703 19.8984 114.156 19.1953 113.062 19.1953C112.557 19.1953 112.143 19.388 111.82 19.7734C111.503 20.1536 111.344 20.6589 111.344 21.2891ZM126.023 22.2031H120.805C120.888 23.3646 121.62 23.9453 123 23.9453C123.88 23.9453 124.654 23.737 125.32 23.3203V25.1016C124.581 25.4974 123.62 25.6953 122.438 25.6953C121.146 25.6953 120.143 25.3385 119.43 24.625C118.716 23.9062 118.359 22.9062 118.359 21.625C118.359 20.2969 118.745 19.2448 119.516 18.4688C120.286 17.6927 121.234 17.3047 122.359 17.3047C123.526 17.3047 124.427 17.651 125.062 18.3438C125.703 19.0365 126.023 19.9766 126.023 21.1641V22.2031ZM123.734 20.6875C123.734 19.5417 123.271 18.9688 122.344 18.9688C121.948 18.9688 121.604 19.1328 121.312 19.4609C121.026 19.7891 120.852 20.1979 120.789 20.6875H123.734ZM132.711 19.7266C132.414 19.5651 132.068 19.4844 131.672 19.4844C131.135 19.4844 130.716 19.6823 130.414 20.0781C130.112 20.4688 129.961 21.0026 129.961 21.6797V25.5H127.492V17.5H129.961V18.9844H129.992C130.383 17.901 131.086 17.3594 132.102 17.3594C132.362 17.3594 132.565 17.3906 132.711 17.4531V19.7266ZM146.617 25.5H144.156V20.9375C144.156 19.776 143.729 19.1953 142.875 19.1953C142.469 19.1953 142.138 19.3698 141.883 19.7188C141.628 20.0677 141.5 20.5026 141.5 21.0234V25.5H139.031V20.8906C139.031 19.7604 138.612 19.1953 137.773 19.1953C137.352 19.1953 137.013 19.362 136.758 19.6953C136.508 20.0286 136.383 20.4818 136.383 21.0547V25.5H133.914V17.5H136.383V18.75H136.414C136.669 18.3229 137.026 17.9766 137.484 17.7109C137.948 17.4401 138.453 17.3047 139 17.3047C140.13 17.3047 140.904 17.8021 141.32 18.7969C141.93 17.8021 142.826 17.3047 144.008 17.3047C145.747 17.3047 146.617 18.3776 146.617 20.5234V25.5ZM155.227 25.5H152.891V24.3516H152.859C152.323 25.2474 151.529 25.6953 150.477 25.6953C149.701 25.6953 149.089 25.4766 148.641 25.0391C148.198 24.5964 147.977 24.0078 147.977 23.2734C147.977 21.7214 148.896 20.8255 150.734 20.5859L152.906 20.2969C152.906 19.4219 152.432 18.9844 151.484 18.9844C150.531 18.9844 149.625 19.2682 148.766 19.8359V17.9766C149.109 17.7995 149.578 17.6432 150.172 17.5078C150.771 17.3724 151.315 17.3047 151.805 17.3047C154.086 17.3047 155.227 18.4427 155.227 20.7188V25.5ZM152.906 22.25V21.7109L151.453 21.8984C150.651 22.0026 150.25 22.3646 150.25 22.9844C150.25 23.2656 150.346 23.4974 150.539 23.6797C150.737 23.8568 151.003 23.9453 151.336 23.9453C151.799 23.9453 152.177 23.7865 152.469 23.4688C152.76 23.1458 152.906 22.7396 152.906 22.25ZM162.398 19.7266C162.102 19.5651 161.755 19.4844 161.359 19.4844C160.823 19.4844 160.404 19.6823 160.102 20.0781C159.799 20.4688 159.648 21.0026 159.648 21.6797V25.5H157.18V17.5H159.648V18.9844H159.68C160.07 17.901 160.773 17.3594 161.789 17.3594C162.049 17.3594 162.253 17.3906 162.398 17.4531V19.7266ZM171.57 25.5H168.609L166.055 21.5312H166.023V25.5H163.555V13.6562H166.023V21.1953H166.055L168.438 17.5H171.367L168.5 21.2578L171.57 25.5ZM179.461 22.2031H174.242C174.326 23.3646 175.057 23.9453 176.438 23.9453C177.318 23.9453 178.091 23.737 178.758 23.3203V25.1016C178.018 25.4974 177.057 25.6953 175.875 25.6953C174.583 25.6953 173.581 25.3385 172.867 24.625C172.154 23.9062 171.797 22.9062 171.797 21.625C171.797 20.2969 172.182 19.2448 172.953 18.4688C173.724 17.6927 174.672 17.3047 175.797 17.3047C176.964 17.3047 177.865 17.651 178.5 18.3438C179.141 19.0365 179.461 19.9766 179.461 21.1641V22.2031ZM177.172 20.6875C177.172 19.5417 176.708 18.9688 175.781 18.9688C175.385 18.9688 175.042 19.1328 174.75 19.4609C174.464 19.7891 174.289 20.1979 174.227 20.6875H177.172ZM185.766 25.4062C185.401 25.599 184.852 25.6953 184.117 25.6953C182.378 25.6953 181.508 24.7917 181.508 22.9844V19.3203H180.211V17.5H181.508V15.7734L183.969 15.0703V17.5H185.766V19.3203H183.969V22.5547C183.969 23.388 184.299 23.8047 184.961 23.8047C185.221 23.8047 185.49 23.7292 185.766 23.5781V25.4062Z" fill="url(#paint2_linear_1152_14451)"/>
<defs>
<linearGradient id="paint0_linear_1152_14451" x1="52.9293" y1="12.6877" x2="55.8972" y2="6.45127" gradientUnits="userSpaceOnUse">
<stop stop-color="#238777"/>
<stop offset="0.473958" stop-color="#49C5B1"/>
<stop offset="1" stop-color="#D4EC8E"/>
</linearGradient>
<linearGradient id="paint1_linear_1152_14451" x1="49.3291" y1="11.6347" x2="51.0374" y2="0.642214" gradientUnits="userSpaceOnUse">
<stop stop-color="#238777"/>
<stop offset="0.473958" stop-color="#49C5B1"/>
<stop offset="1" stop-color="#D4EC8E"/>
</linearGradient>
<linearGradient id="paint2_linear_1152_14451" x1="93.572" y1="33.1507" x2="144.664" y2="-40.0525" gradientUnits="userSpaceOnUse">
<stop stop-color="#49C5B1"/>
<stop offset="1" stop-color="#D4EC8E"/>
</linearGradient>
</defs>
</svg>
