<svg width="673" height="300" viewBox="0 0 1223 545" fill="none" xmlns="http://www.w3.org/2000/svg">
<path d="M1133.23 384.669C1107.24 384.669 1086.05 376.228 1069.68 359.347C1053.3 342.381 1045.11 320.309 1045.11 293.131C1045.11 264.433 1053.43 241.221 1070.06 223.496C1086.68 205.77 1108.71 196.908 1136.15 196.908C1162.06 196.908 1182.99 205.391 1198.94 222.356C1214.98 239.322 1223 261.689 1223 289.459C1223 317.988 1214.69 340.989 1198.06 358.461C1181.51 375.933 1159.91 384.669 1133.23 384.669ZM1135.01 232.105C1120.66 232.105 1109.26 237.507 1100.82 248.311C1092.38 259.031 1088.16 273.253 1088.16 290.978C1088.16 308.957 1092.38 323.179 1100.82 333.645C1109.26 344.112 1120.32 349.345 1133.99 349.345C1148.09 349.345 1159.27 344.28 1167.55 334.152C1175.82 323.939 1179.95 309.801 1179.95 291.738C1179.95 272.915 1175.94 258.271 1167.93 247.805C1159.91 237.338 1148.93 232.105 1135.01 232.105Z" fill="url(#paint0_linear_1629_22051)"/>
<path d="M902.806 374.54V334.025C910.15 340.187 918.126 344.829 926.735 347.952C935.345 350.991 944.039 352.51 952.817 352.51C957.966 352.51 962.439 352.046 966.237 351.117C970.12 350.189 973.327 348.923 975.86 347.319C978.476 345.631 980.418 343.69 981.684 341.495C982.95 339.216 983.583 336.768 983.583 334.152C983.583 330.607 982.57 327.441 980.544 324.656C978.518 321.871 975.733 319.296 972.188 316.933C968.727 314.57 964.591 312.291 959.78 310.096C954.969 307.902 949.778 305.665 944.207 303.386C930.027 297.477 919.434 290.261 912.429 281.736C905.507 273.211 902.047 262.913 902.047 250.843C902.047 241.39 903.946 233.287 907.744 226.534C911.542 219.697 916.691 214.084 923.19 209.695C929.774 205.306 937.371 202.099 945.98 200.073C954.589 197.963 963.705 196.908 973.327 196.908C982.781 196.908 991.137 197.499 998.396 198.68C1005.74 199.778 1012.49 201.508 1018.65 203.871V241.727C1015.61 239.617 1012.28 237.76 1008.65 236.157C1005.11 234.553 1001.43 233.245 997.636 232.232C993.838 231.134 990.04 230.333 986.242 229.826C982.528 229.32 978.983 229.066 975.606 229.066C970.964 229.066 966.744 229.531 962.946 230.459C959.147 231.303 955.94 232.527 953.323 234.131C950.707 235.735 948.681 237.676 947.246 239.955C945.811 242.149 945.094 244.639 945.094 247.425C945.094 250.463 945.896 253.207 947.499 255.654C949.103 258.018 951.382 260.297 954.336 262.491C957.29 264.601 960.878 266.711 965.098 268.822C969.318 270.847 974.087 272.958 979.405 275.152C986.664 278.191 993.163 281.44 998.902 284.901C1004.73 288.277 1009.71 292.118 1013.84 296.422C1017.98 300.727 1021.14 305.665 1023.34 311.236C1025.53 316.722 1026.63 323.137 1026.63 330.48C1026.63 340.609 1024.69 349.134 1020.81 356.055C1017.01 362.892 1011.82 368.463 1005.23 372.767C998.649 376.988 990.968 380.026 982.19 381.883C973.496 383.74 964.296 384.669 954.589 384.669C944.629 384.669 935.134 383.825 926.102 382.136C917.155 380.448 909.39 377.916 902.806 374.54Z" fill="url(#paint1_linear_1629_22051)"/>
<path d="M791.137 384.669C765.14 384.669 743.954 376.228 727.58 359.347C711.205 342.381 703.018 320.309 703.018 293.131C703.018 264.433 711.332 241.221 727.96 223.496C744.588 205.77 766.617 196.908 794.049 196.908C819.962 196.908 840.895 205.391 856.847 222.356C872.884 239.322 880.903 261.689 880.903 289.459C880.903 317.988 872.589 340.989 855.961 358.461C839.417 375.933 817.81 384.669 791.137 384.669ZM792.91 232.105C778.561 232.105 767.166 237.507 758.725 248.311C750.285 259.031 746.065 273.253 746.065 290.978C746.065 308.957 750.285 323.179 758.725 333.645C767.166 344.112 778.223 349.345 791.897 349.345C805.993 349.345 817.177 344.28 825.448 334.152C833.72 323.939 837.856 309.801 837.856 291.738C837.856 272.915 833.847 258.271 825.828 247.805C817.81 237.338 806.837 232.105 792.91 232.105Z" fill="url(#paint2_linear_1629_22051)"/>
<path d="M699.599 233.244H647.816V381.503H606.795V233.244H555.265V199.946H699.599V233.244Z" fill="url(#paint3_linear_1629_22051)"/>
<path d="M530.577 381.503H489.302L414.476 267.428C410.087 260.76 407.049 255.738 405.36 252.362H404.854C405.529 258.777 405.867 268.568 405.867 281.735V381.503H367.251V199.946H411.311L483.351 310.475C486.643 315.455 489.682 320.393 492.467 325.288H492.974C492.298 321.068 491.961 312.754 491.961 300.347V199.946H530.577V381.503Z" fill="url(#paint4_linear_1629_22051)"/>
<path d="M247.226 384.669C221.229 384.669 200.043 376.228 183.668 359.347C167.294 342.381 159.106 320.309 159.106 293.131C159.106 264.433 167.42 241.221 184.048 223.496C200.676 205.77 222.706 196.908 250.138 196.908C276.051 196.908 296.983 205.391 312.936 222.356C328.973 239.322 336.992 261.689 336.992 289.459C336.992 317.988 328.678 340.989 312.05 358.461C295.506 375.933 273.898 384.669 247.226 384.669ZM248.999 232.105C234.65 232.105 223.255 237.507 214.814 248.311C206.374 259.031 202.153 273.253 202.153 290.978C202.153 308.957 206.374 323.179 214.814 333.645C223.255 344.112 234.312 349.345 247.986 349.345C262.082 349.345 273.265 344.28 281.537 334.152C289.809 323.939 293.945 309.801 293.945 291.738C293.945 272.915 289.935 258.271 281.917 247.805C273.898 237.338 262.926 232.105 248.999 232.105Z" fill="url(#paint5_linear_1629_22051)"/>
<path d="M142.141 375.046C128.889 381.461 111.586 384.669 90.2312 384.669C62.3773 384.669 40.474 376.481 24.5212 360.107C8.56854 343.732 0.592186 321.913 0.592186 294.65C0.592186 265.614 9.5392 242.065 27.4332 224.002C45.4117 205.939 68.7077 196.908 97.3213 196.908C115.047 196.908 129.986 199.145 142.141 203.618V242.993C129.986 235.735 116.144 232.105 100.613 232.105C83.5631 232.105 69.805 237.465 59.3387 248.184C48.8723 258.904 43.6392 273.422 43.6392 291.738C43.6392 309.294 48.5769 323.306 58.4524 333.772C68.3279 344.154 81.6218 349.345 98.3342 349.345C114.287 349.345 128.889 345.462 142.141 337.697V375.046Z" fill="url(#paint6_linear_1629_22051)"/>
<path d="M922.728 520.483C920.42 521.702 916.943 522.312 912.296 522.312C901.287 522.312 895.782 516.593 895.782 505.156V481.968H887.575V470.448H895.782V459.522L911.356 455.072V470.448H922.728V481.968H911.356V502.437C911.356 507.71 913.449 510.347 917.635 510.347C919.283 510.347 920.981 509.869 922.728 508.913V520.483Z" fill="white"/>
<path d="M882.829 500.211H849.802C850.33 507.561 854.961 511.236 863.695 511.236C869.266 511.236 874.16 509.917 878.379 507.281V518.553C873.699 521.058 867.618 522.311 860.136 522.311C851.961 522.311 845.616 520.053 841.101 515.537C836.585 510.989 834.327 504.66 834.327 496.552C834.327 488.147 836.766 481.489 841.645 476.578C846.523 471.667 852.522 469.211 859.641 469.211C867.024 469.211 872.726 471.403 876.748 475.787C880.802 480.171 882.829 486.12 882.829 493.635V500.211ZM868.343 490.619C868.343 483.368 865.409 479.742 859.542 479.742C857.037 479.742 854.862 480.78 853.016 482.857C851.203 484.933 850.099 487.521 849.704 490.619H868.343Z" fill="white"/>
<path d="M832.894 521.075H814.156L797.988 495.959H797.791V521.075H782.167V446.123H797.791V493.833H797.988L813.068 470.448H831.608L813.463 494.229L832.894 521.075Z" fill="white"/>
<path d="M774.85 484.537C772.971 483.516 770.779 483.005 768.274 483.005C764.879 483.005 762.226 484.257 760.314 486.762C758.403 489.234 757.447 492.613 757.447 496.898V521.074H741.823V470.447H757.447V479.841H757.645C760.117 472.985 764.566 469.557 770.994 469.557C772.642 469.557 773.927 469.755 774.85 470.15V484.537Z" fill="white"/>
<path d="M729.463 521.075H714.68V513.807H714.483C711.088 519.476 706.061 522.311 699.403 522.311C694.492 522.311 690.619 520.926 687.785 518.158C684.983 515.356 683.582 511.631 683.582 506.984C683.582 497.162 689.4 491.493 701.035 489.976L714.779 488.147C714.779 482.61 711.78 479.841 705.781 479.841C699.749 479.841 694.014 481.637 688.576 485.23V473.463C690.751 472.342 693.718 471.354 697.475 470.497C701.266 469.64 704.71 469.211 707.808 469.211C722.245 469.211 729.463 476.413 729.463 490.817V521.075ZM714.779 500.507V497.096L705.583 498.282C700.507 498.942 697.969 501.232 697.969 505.155C697.969 506.935 698.579 508.401 699.799 509.555C701.051 510.676 702.732 511.236 704.842 511.236C707.775 511.236 710.165 510.231 712.011 508.22C713.857 506.176 714.779 503.606 714.779 500.507Z" fill="white"/>
<path d="M674.979 521.075H659.406V492.201C659.406 484.851 656.703 481.176 651.297 481.176C648.726 481.176 646.633 482.28 645.018 484.488C643.403 486.697 642.596 489.449 642.596 492.745V521.075H626.972V491.905C626.972 484.752 624.319 481.176 619.012 481.176C616.343 481.176 614.2 482.231 612.585 484.34C611.003 486.45 610.212 489.317 610.212 492.943V521.075H594.589V470.447H610.212V478.358H610.41C612.025 475.655 614.283 473.463 617.183 471.782C620.117 470.068 623.314 469.211 626.775 469.211C633.927 469.211 638.822 472.359 641.459 478.654C645.315 472.359 650.984 469.211 658.466 469.211C669.475 469.211 674.979 476.001 674.979 489.581V521.075Z" fill="white"/>
<path d="M586.975 484.537C585.096 483.516 582.904 483.005 580.399 483.005C577.004 483.005 574.351 484.257 572.439 486.762C570.527 489.234 569.572 492.613 569.572 496.898V521.074H553.948V470.447H569.572V479.841H569.769C572.241 472.985 576.691 469.557 583.118 469.557C584.766 469.557 586.052 469.755 586.975 470.15V484.537Z" fill="white"/>
<path d="M544.653 500.211H511.627C512.154 507.561 516.785 511.236 525.52 511.236C531.09 511.236 535.985 509.917 540.204 507.281V518.553C535.523 521.058 529.442 522.311 521.96 522.311C513.786 522.311 507.441 520.053 502.925 515.537C498.41 510.989 496.152 504.66 496.152 496.552C496.152 488.147 498.591 481.489 503.469 476.578C508.347 471.667 514.346 469.211 521.466 469.211C528.849 469.211 534.551 471.403 538.572 475.787C542.626 480.171 544.653 486.12 544.653 493.635V500.211ZM530.167 490.619C530.167 483.368 527.234 479.742 521.367 479.742C518.862 479.742 516.686 480.78 514.84 482.857C513.028 484.933 511.923 487.521 511.528 490.619H530.167Z" fill="white"/>
<path d="M452.199 515.191H452.001V544.361H436.378V470.447H452.001V478.061H452.199C456.055 472.161 461.477 469.211 468.465 469.211C475.024 469.211 480.084 471.469 483.643 475.985C487.236 480.467 489.032 486.581 489.032 494.327C489.032 502.765 486.939 509.538 482.753 514.647C478.6 519.756 473.063 522.311 466.141 522.311C460.044 522.311 455.396 519.938 452.199 515.191ZM451.754 494.426V498.48C451.754 501.974 452.677 504.825 454.523 507.033C456.368 509.242 458.791 510.346 461.79 510.346C465.35 510.346 468.102 508.978 470.047 506.242C472.025 503.474 473.014 499.568 473.014 494.525C473.014 485.626 469.553 481.176 462.631 481.176C459.434 481.176 456.813 482.395 454.77 484.834C452.759 487.241 451.754 490.438 451.754 494.426Z" fill="white"/>
<path d="M430.099 470.447L409.531 525.129C404.587 538.28 397.138 544.856 387.184 544.856C383.394 544.856 380.279 544.427 377.84 543.57V531.111C379.916 532.331 382.174 532.94 384.613 532.94C388.634 532.94 391.436 531.045 393.018 527.255L395.688 520.976L375.121 470.447H392.425L401.868 501.249C402.461 503.161 402.923 505.418 403.252 508.022H403.45C403.747 506.11 404.291 503.886 405.082 501.348L414.624 470.447H430.099Z" fill="white"/>
<path d="M367.161 521.075H351.142V492.201H321.774V521.075H305.805V450.176H321.774V478.457H351.142V450.176H367.161V521.075Z" fill="white"/>
<path d="M794.379 179.336C816.42 123.909 879.305 96.5635 934.875 118.243C912.834 173.67 849.949 201.016 794.379 179.336Z" fill="url(#paint7_linear_1629_22051)"/>
<path d="M765.226 176.162C727.372 117.088 744.365 38.2381 803.192 0C841.046 59.0746 824.052 137.924 765.226 176.162Z" fill="url(#paint8_linear_1629_22051)"/>
<defs>
<linearGradient id="paint0_linear_1629_22051" x1="1105.54" y1="384.669" x2="1119.31" y2="195.833" gradientUnits="userSpaceOnUse">
<stop stop-color="#238777"/>
<stop offset="0.473958" stop-color="#49C5B1"/>
<stop offset="1" stop-color="#D4EC8E"/>
</linearGradient>
<linearGradient id="paint1_linear_1629_22051" x1="944.368" y1="384.669" x2="963.919" y2="196.864" gradientUnits="userSpaceOnUse">
<stop stop-color="#238777"/>
<stop offset="0.473958" stop-color="#49C5B1"/>
<stop offset="1" stop-color="#D4EC8E"/>
</linearGradient>
<linearGradient id="paint2_linear_1629_22051" x1="763.446" y1="384.669" x2="777.213" y2="195.833" gradientUnits="userSpaceOnUse">
<stop stop-color="#238777"/>
<stop offset="0.473958" stop-color="#49C5B1"/>
<stop offset="1" stop-color="#D4EC8E"/>
</linearGradient>
<linearGradient id="paint3_linear_1629_22051" x1="604.296" y1="381.503" x2="620.126" y2="199.311" gradientUnits="userSpaceOnUse">
<stop stop-color="#238777"/>
<stop offset="0.473958" stop-color="#49C5B1"/>
<stop offset="1" stop-color="#D4EC8E"/>
</linearGradient>
<linearGradient id="paint4_linear_1629_22051" x1="422.733" y1="381.503" x2="436.746" y2="199.012" gradientUnits="userSpaceOnUse">
<stop stop-color="#238777"/>
<stop offset="0.473958" stop-color="#49C5B1"/>
<stop offset="1" stop-color="#D4EC8E"/>
</linearGradient>
<linearGradient id="paint5_linear_1629_22051" x1="219.535" y1="384.669" x2="233.302" y2="195.833" gradientUnits="userSpaceOnUse">
<stop stop-color="#238777"/>
<stop offset="0.473958" stop-color="#49C5B1"/>
<stop offset="1" stop-color="#D4EC8E"/>
</linearGradient>
<linearGradient id="paint6_linear_1629_22051" x1="48.6767" y1="384.669" x2="65.9257" y2="196.409" gradientUnits="userSpaceOnUse">
<stop stop-color="#238777"/>
<stop offset="0.473958" stop-color="#49C5B1"/>
<stop offset="1" stop-color="#D4EC8E"/>
</linearGradient>
<linearGradient id="paint7_linear_1629_22051" x1="828.619" y1="192.823" x2="875.575" y2="94.1555" gradientUnits="userSpaceOnUse">
<stop stop-color="#238777"/>
<stop offset="0.473958" stop-color="#49C5B1"/>
<stop offset="1" stop-color="#D4EC8E"/>
</linearGradient>
<linearGradient id="paint8_linear_1629_22051" x1="771.658" y1="176.162" x2="798.686" y2="2.24997" gradientUnits="userSpaceOnUse">
<stop stop-color="#238777"/>
<stop offset="0.473958" stop-color="#49C5B1"/>
<stop offset="1" stop-color="#D4EC8E"/>
</linearGradient>
</defs>
</svg>
