<svg width="1042" height="148" viewBox="0 0 1042 148" fill="none" xmlns="http://www.w3.org/2000/svg">
<path d="M406.338 138C397.011 138 389.411 134.972 383.536 128.916C377.662 122.829 374.725 114.911 374.725 105.16C374.725 94.865 377.707 86.5378 383.673 80.1788C389.638 73.8199 397.541 70.6404 407.382 70.6404C416.679 70.6404 424.188 73.6836 429.911 79.77C435.665 85.8565 438.541 93.8809 438.541 103.843C438.541 114.078 435.559 122.33 429.593 128.598C423.658 134.866 415.906 138 406.338 138ZM406.974 83.2675C401.826 83.2675 397.738 85.2054 394.71 89.0814C391.682 92.927 390.168 98.0294 390.168 104.388C390.168 110.838 391.682 115.94 394.71 119.695C397.738 123.45 401.705 125.327 406.61 125.327C411.667 125.327 415.679 123.511 418.647 119.877C421.614 116.213 423.098 111.141 423.098 104.661C423.098 97.9082 421.66 92.6545 418.783 88.8997C415.906 85.1449 411.97 83.2675 406.974 83.2675Z" fill="url(#paint0_linear_1623_164)"/>
<path d="M323.671 134.366V119.832C326.306 122.042 329.167 123.707 332.256 124.828C335.345 125.918 338.463 126.463 341.613 126.463C343.46 126.463 345.065 126.296 346.427 125.963C347.82 125.63 348.971 125.176 349.879 124.601C350.818 123.995 351.514 123.299 351.969 122.511C352.423 121.694 352.65 120.816 352.65 119.877C352.65 118.605 352.287 117.47 351.56 116.47C350.833 115.471 349.834 114.548 348.562 113.7C347.321 112.852 345.837 112.034 344.111 111.247C342.385 110.46 340.523 109.657 338.524 108.84C333.437 106.72 329.637 104.131 327.123 101.073C324.64 98.0142 323.399 94.32 323.399 89.9898C323.399 86.5984 324.08 83.6914 325.443 81.2689C326.805 78.8162 328.652 76.8025 330.984 75.2279C333.346 73.6533 336.071 72.5027 339.16 71.7759C342.249 71.0189 345.519 70.6404 348.971 70.6404C352.362 70.6404 355.36 70.8523 357.964 71.2763C360.599 71.6699 363.021 72.2907 365.232 73.1385V86.7195C364.142 85.9625 362.945 85.2963 361.643 84.7209C360.372 84.1456 359.054 83.6763 357.692 83.3129C356.329 82.9192 354.966 82.6316 353.604 82.4499C352.271 82.2682 351 82.1774 349.788 82.1774C348.123 82.1774 346.609 82.3439 345.246 82.677C343.884 82.9798 342.733 83.4189 341.794 83.9942C340.856 84.5695 340.129 85.266 339.614 86.0836C339.099 86.8709 338.842 87.7642 338.842 88.7634C338.842 89.8535 339.13 90.8377 339.705 91.7158C340.28 92.5637 341.098 93.3813 342.158 94.1686C343.218 94.9256 344.504 95.6826 346.018 96.4396C347.533 97.1663 349.243 97.9234 351.151 98.7107C353.755 99.8008 356.087 100.967 358.146 102.208C360.235 103.419 362.022 104.797 363.506 106.341C364.989 107.886 366.125 109.657 366.912 111.656C367.7 113.624 368.093 115.925 368.093 118.56C368.093 122.193 367.397 125.252 366.004 127.735C364.641 130.188 362.779 132.186 360.417 133.73C358.055 135.244 355.3 136.335 352.15 137.001C349.031 137.667 345.731 138 342.249 138C338.675 138 335.269 137.697 332.029 137.092C328.819 136.486 326.033 135.578 323.671 134.366Z" fill="url(#paint1_linear_1623_164)"/>
<path d="M283.61 138C274.283 138 266.683 134.972 260.808 128.916C254.934 122.829 251.997 114.911 251.997 105.16C251.997 94.865 254.979 86.5378 260.945 80.1788C266.91 73.8199 274.813 70.6404 284.654 70.6404C293.951 70.6404 301.46 73.6836 307.183 79.77C312.937 85.8565 315.813 93.8809 315.813 103.843C315.813 114.078 312.831 122.33 306.865 128.598C300.93 134.866 293.179 138 283.61 138ZM284.246 83.2675C279.098 83.2675 275.01 85.2054 271.982 89.0814C268.954 92.927 267.44 98.0294 267.44 104.388C267.44 110.838 268.954 115.94 271.982 119.695C275.01 123.45 278.977 125.327 283.882 125.327C288.939 125.327 292.951 123.511 295.919 119.877C298.886 116.213 300.37 111.141 300.37 104.661C300.37 97.9082 298.932 92.6545 296.055 88.8997C293.179 85.1449 289.242 83.2675 284.246 83.2675Z" fill="url(#paint2_linear_1623_164)"/>
<path d="M250.77 83.6764H232.193V136.865H217.477V83.6764H198.99V71.7306H250.77V83.6764Z" fill="url(#paint3_linear_1623_164)"/>
<path d="M190.133 136.865H175.326L148.482 95.9401C146.907 93.5479 145.817 91.7462 145.211 90.535H145.03C145.272 92.8363 145.393 96.3489 145.393 101.073V136.865H131.54V71.7306H147.346L173.191 111.383C174.372 113.17 175.462 114.941 176.461 116.698H176.643C176.401 115.184 176.28 112.201 176.28 107.75V71.7306H190.133V136.865Z" fill="url(#paint4_linear_1623_164)"/>
<path d="M88.4804 138C79.154 138 71.5535 134.972 65.679 128.916C59.8045 122.829 56.8673 114.911 56.8673 105.16C56.8673 94.865 59.85 86.5378 65.8153 80.1788C71.7806 73.8199 79.6839 70.6404 89.5251 70.6404C98.8213 70.6404 106.331 73.6836 112.054 79.77C117.807 85.8565 120.684 93.8809 120.684 103.843C120.684 114.078 117.701 122.33 111.736 128.598C105.801 134.866 98.0492 138 88.4804 138ZM89.1163 83.2675C83.9686 83.2675 79.8807 85.2054 76.8526 89.0814C73.8245 92.927 72.3105 98.0294 72.3105 104.388C72.3105 110.838 73.8245 115.94 76.8526 119.695C79.8807 123.45 83.8475 125.327 88.753 125.327C93.8099 125.327 97.8221 123.511 100.79 119.877C103.757 116.213 105.241 111.141 105.241 104.661C105.241 97.9082 103.803 92.6545 100.926 88.8997C98.0492 85.1449 94.1127 83.2675 89.1163 83.2675Z" fill="url(#paint5_linear_1623_164)"/>
<path d="M50.7809 134.548C46.0268 136.849 39.8192 138 32.1582 138C22.1655 138 14.3077 135.063 8.5846 129.188C2.86153 123.314 0 115.486 0 105.706C0 95.2889 3.20976 86.8406 9.62929 80.3605C16.0791 73.8804 24.4366 70.6404 34.7018 70.6404C41.0607 70.6404 46.4204 71.4428 50.7809 73.0477V87.1737C46.4204 84.5695 41.4544 83.2675 35.8827 83.2675C29.766 83.2675 24.8302 85.1903 21.0754 89.036C17.3206 92.8816 15.4432 98.0899 15.4432 104.661C15.4432 110.959 17.2146 115.986 20.7575 119.741C24.3003 123.465 29.0695 125.327 35.0651 125.327C40.7882 125.327 46.0268 123.935 50.7809 121.149V134.548Z" fill="url(#paint6_linear_1623_164)"/>
<path d="M1042 126.051C1039.95 127.135 1036.86 127.676 1032.73 127.676C1022.95 127.676 1018.07 122.597 1018.07 112.437V91.8399H1010.77V81.6071H1018.07V71.9014L1031.9 67.9489V81.6071H1042V91.8399H1031.9V110.022C1031.9 114.706 1033.76 117.048 1037.48 117.048C1038.94 117.048 1040.45 116.624 1042 115.775V126.051Z" fill="#1A1A1A"/>
<path d="M1006.56 108.045H977.222C977.691 114.574 981.804 117.839 989.563 117.839C994.511 117.839 998.859 116.668 1002.61 114.325V124.339C998.449 126.564 993.047 127.676 986.401 127.676C979.14 127.676 973.504 125.671 969.493 121.66C965.482 117.619 963.476 111.998 963.476 104.795C963.476 97.3294 965.643 91.4152 969.976 87.0527C974.309 82.6903 979.638 80.509 985.962 80.509C992.52 80.509 997.585 82.456 1001.16 86.35C1004.76 90.244 1006.56 95.5288 1006.56 102.204V108.045ZM993.691 99.5252C993.691 93.084 991.085 89.8634 985.874 89.8634C983.649 89.8634 981.716 90.7857 980.077 92.6302C978.467 94.4747 977.486 96.7731 977.134 99.5252H993.691Z" fill="#1A1A1A"/>
<path d="M962.203 126.579H945.558L931.197 104.269H931.021V126.579H917.143V60H931.021V102.38H931.197L944.592 81.6073H961.061L944.943 102.732L962.203 126.579Z" fill="#1A1A1A"/>
<path d="M910.644 94.1239C908.975 93.2163 907.028 92.7625 904.803 92.7625C901.787 92.7625 899.43 93.875 897.732 96.1002C896.034 98.2961 895.185 101.297 895.185 105.103V126.579H881.307V81.6075H895.185V89.9518H895.361C897.556 83.8619 901.509 80.817 907.218 80.817C908.682 80.817 909.824 80.9926 910.644 81.344V94.1239Z" fill="#1A1A1A"/>
<path d="M870.327 126.578H857.196V120.122H857.02C854.005 125.158 849.54 127.676 843.626 127.676C839.263 127.676 835.823 126.447 833.305 123.987C830.816 121.499 829.572 118.19 829.572 114.062C829.572 105.337 834.74 100.301 845.075 98.9543L857.284 97.3294C857.284 92.4106 854.62 89.9513 849.291 89.9513C843.933 89.9513 838.839 91.5469 834.008 94.7382V84.2859C835.94 83.2905 838.575 82.4121 841.913 81.6509C845.28 80.8896 848.339 80.509 851.092 80.509C863.915 80.509 870.327 86.9063 870.327 99.7009V126.578ZM857.284 108.309V105.278L849.115 106.332C844.607 106.918 842.352 108.953 842.352 112.437C842.352 114.018 842.894 115.321 843.977 116.346C845.09 117.341 846.583 117.839 848.457 117.839C851.062 117.839 853.185 116.946 854.825 115.16C856.464 113.345 857.284 111.061 857.284 108.309Z" fill="#1A1A1A"/>
<path d="M821.93 126.578H808.096V100.931C808.096 94.4015 805.696 91.137 800.894 91.137C798.61 91.137 796.751 92.1178 795.317 94.0795C793.882 96.0411 793.165 98.4859 793.165 101.414V126.578H779.287V100.667C779.287 94.3137 776.93 91.137 772.216 91.137C769.845 91.137 767.941 92.0739 766.507 93.9477C765.101 95.8215 764.399 98.3687 764.399 101.589V126.578H750.521V81.607H764.399V88.6337H764.574C766.009 86.2329 768.015 84.2859 770.591 82.7927C773.197 81.2703 776.037 80.509 779.111 80.509C785.464 80.509 789.812 83.3051 792.154 88.8972C795.58 83.3051 800.616 80.509 807.262 80.509C817.041 80.509 821.93 86.5403 821.93 98.603V126.578Z" fill="#1A1A1A"/>
<path d="M743.758 94.1239C742.089 93.2163 740.142 92.7625 737.917 92.7625C734.901 92.7625 732.544 93.875 730.846 96.1002C729.148 98.2961 728.299 101.297 728.299 105.103V126.579H714.421V81.6075H728.299V89.9518H728.475C730.671 83.8619 734.623 80.817 740.332 80.817C741.796 80.817 742.938 80.9926 743.758 81.344V94.1239Z" fill="#1A1A1A"/>
<path d="M706.165 108.045H676.828C677.296 114.574 681.41 117.839 689.169 117.839C694.117 117.839 698.464 116.668 702.212 114.325V124.339C698.054 126.564 692.653 127.676 686.006 127.676C678.746 127.676 673.109 125.671 669.098 121.66C665.087 117.619 663.082 111.998 663.082 104.795C663.082 97.3294 665.248 91.4152 669.581 87.0527C673.915 82.6903 679.243 80.509 685.567 80.509C692.126 80.509 697.191 82.456 700.763 86.35C704.364 90.244 706.165 95.5288 706.165 102.204V108.045ZM693.297 99.5252C693.297 93.084 690.691 89.8634 685.479 89.8634C683.254 89.8634 681.322 90.7857 679.682 92.6302C678.072 94.4747 677.091 96.7731 676.74 99.5252H693.297Z" fill="#1A1A1A"/>
<path d="M624.039 121.352H623.863V147.263H609.985V81.607H623.863V88.3702H624.039C627.465 83.1294 632.281 80.509 638.488 80.509C644.314 80.509 648.808 82.5146 651.97 86.5257C655.162 90.5075 656.757 95.9386 656.757 102.819C656.757 110.314 654.898 116.331 651.18 120.869C647.491 125.407 642.572 127.676 636.424 127.676C631.007 127.676 626.879 125.568 624.039 121.352ZM623.644 102.907V106.508C623.644 109.612 624.464 112.144 626.103 114.106C627.743 116.067 629.895 117.048 632.559 117.048C635.721 117.048 638.166 115.833 639.893 113.403C641.65 110.944 642.528 107.474 642.528 102.995C642.528 95.0896 639.454 91.137 633.306 91.137C630.466 91.137 628.138 92.2203 626.323 94.3869C624.537 96.5242 623.644 99.3642 623.644 102.907Z" fill="#1A1A1A"/>
<path d="M604.408 81.6069L586.138 130.179C581.746 141.861 575.13 147.702 566.288 147.702C562.921 147.702 560.154 147.322 557.987 146.561V135.493C559.832 136.577 561.837 137.118 564.004 137.118C567.576 137.118 570.064 135.435 571.47 132.068L573.841 126.49L555.572 81.6069H570.943L579.331 108.967C579.858 110.666 580.268 112.671 580.561 114.984H580.736C581 113.286 581.483 111.31 582.186 109.055L590.662 81.6069H604.408Z" fill="#1A1A1A"/>
<path d="M548.501 126.578H534.272V100.931H508.185V126.578H494V63.6008H508.185V88.7215H534.272V63.6008H548.501V126.578Z" fill="#1A1A1A"/>
<path d="M284.773 64.3373C292.68 44.4526 315.24 34.6424 335.176 42.4198C327.269 62.3046 304.709 72.1147 284.773 64.3373Z" fill="url(#paint7_linear_1623_164)"/>
<path d="M274.211 64C260.674 42.5381 266.751 13.892 287.789 0C301.326 21.4619 295.249 50.108 274.211 64Z" fill="url(#paint8_linear_1623_164)"/>
<defs>
<linearGradient id="paint0_linear_1623_164" x1="396.403" y1="138" x2="401.343" y2="70.2547" gradientUnits="userSpaceOnUse">
<stop stop-color="#238777"/>
<stop offset="0.473958" stop-color="#49C5B1"/>
<stop offset="1" stop-color="#D4EC8E"/>
</linearGradient>
<linearGradient id="paint1_linear_1623_164" x1="338.582" y1="138" x2="345.595" y2="70.6247" gradientUnits="userSpaceOnUse">
<stop stop-color="#238777"/>
<stop offset="0.473958" stop-color="#49C5B1"/>
<stop offset="1" stop-color="#D4EC8E"/>
</linearGradient>
<linearGradient id="paint2_linear_1623_164" x1="273.675" y1="138" x2="278.615" y2="70.2547" gradientUnits="userSpaceOnUse">
<stop stop-color="#238777"/>
<stop offset="0.473958" stop-color="#49C5B1"/>
<stop offset="1" stop-color="#D4EC8E"/>
</linearGradient>
<linearGradient id="paint3_linear_1623_164" x1="216.58" y1="136.865" x2="222.259" y2="71.5029" gradientUnits="userSpaceOnUse">
<stop stop-color="#238777"/>
<stop offset="0.473958" stop-color="#49C5B1"/>
<stop offset="1" stop-color="#D4EC8E"/>
</linearGradient>
<linearGradient id="paint4_linear_1623_164" x1="151.444" y1="136.865" x2="156.471" y2="71.3954" gradientUnits="userSpaceOnUse">
<stop stop-color="#238777"/>
<stop offset="0.473958" stop-color="#49C5B1"/>
<stop offset="1" stop-color="#D4EC8E"/>
</linearGradient>
<linearGradient id="paint5_linear_1623_164" x1="78.546" y1="138" x2="83.4852" y2="70.2547" gradientUnits="userSpaceOnUse">
<stop stop-color="#238777"/>
<stop offset="0.473958" stop-color="#49C5B1"/>
<stop offset="1" stop-color="#D4EC8E"/>
</linearGradient>
<linearGradient id="paint6_linear_1623_164" x1="17.2504" y1="138" x2="23.4386" y2="70.4616" gradientUnits="userSpaceOnUse">
<stop stop-color="#238777"/>
<stop offset="0.473958" stop-color="#49C5B1"/>
<stop offset="1" stop-color="#D4EC8E"/>
</linearGradient>
<linearGradient id="paint7_linear_1623_164" x1="297.057" y1="69.1757" x2="313.902" y2="33.7785" gradientUnits="userSpaceOnUse">
<stop stop-color="#238777"/>
<stop offset="0.473958" stop-color="#49C5B1"/>
<stop offset="1" stop-color="#D4EC8E"/>
</linearGradient>
<linearGradient id="paint8_linear_1623_164" x1="276.512" y1="64" x2="286.48" y2="0.86513" gradientUnits="userSpaceOnUse">
<stop stop-color="#238777"/>
<stop offset="0.473958" stop-color="#49C5B1"/>
<stop offset="1" stop-color="#D4EC8E"/>
</linearGradient>
</defs>
</svg>
