<svg width="265" height="66" viewBox="0 0 265 66" fill="none" xmlns="http://www.w3.org/2000/svg">
<g clip-path="url(#clip0_1_67)">
<mask id="mask0_1_67" style="mask-type:luminance" maskUnits="userSpaceOnUse" x="0" y="0" width="266" height="67">
<path d="M265.115 0H0V66.108H265.115V0Z" fill="white"/>
</mask>
<g mask="url(#mask0_1_67)">
<path d="M57.8476 45.9797C55.7536 46.9933 53.0194 47.5002 49.645 47.5002C45.2436 47.5002 41.7825 46.2064 39.2617 43.6189C36.7409 41.0314 35.4805 37.5837 35.4805 33.2756C35.4805 28.6875 36.8943 24.9663 39.7218 22.1121C42.5627 19.2579 46.2439 17.8307 50.7653 17.8307C53.5662 17.8307 55.927 18.1842 57.8476 18.8911V25.1131C55.927 23.966 53.7396 23.3925 51.2855 23.3925C48.5913 23.3925 46.4173 24.2394 44.7634 25.9333C43.1096 27.6272 42.2826 29.9212 42.2826 32.8155C42.2826 35.5897 43.0629 37.8037 44.6234 39.4576C46.1839 41.0981 48.2845 41.9184 50.9254 41.9184C53.4462 41.9184 55.7536 41.3049 57.8476 40.0778V45.9797ZM74.4528 47.5002C70.3449 47.5002 66.9971 46.1664 64.4096 43.4989C61.8222 40.818 60.5284 37.3303 60.5284 33.0356C60.5284 28.5008 61.8422 24.833 64.4697 22.0321C67.0972 19.2312 70.5783 17.8307 74.913 17.8307C79.0076 17.8307 82.3153 19.1712 84.8361 21.852C87.3703 24.5329 88.6373 28.0673 88.6373 32.4554C88.6373 36.9635 87.3236 40.598 84.6961 43.3588C82.0819 46.1197 78.6675 47.5002 74.4528 47.5002ZM74.7329 23.3925C72.4655 23.3925 70.665 24.2461 69.3312 25.9533C67.9975 27.6472 67.3306 29.8946 67.3306 32.6955C67.3306 35.5364 67.9975 37.7837 69.3312 39.4376C70.665 41.0915 72.4122 41.9184 74.5729 41.9184C76.8002 41.9184 78.5675 41.1181 79.8746 39.5176C81.1816 37.9038 81.8352 35.6697 81.8352 32.8155C81.8352 29.8412 81.2016 27.5272 79.9346 25.8733C78.6675 24.2194 76.9336 23.3925 74.7329 23.3925ZM119.227 47H112.705L100.881 28.9743C100.188 27.9206 99.7075 27.127 99.4408 26.5935H99.3607C99.4674 27.6072 99.5208 29.1543 99.5208 31.235V47H93.4189V18.3109H100.381L111.765 35.7764C112.285 36.5634 112.765 37.3436 113.205 38.1172H113.285C113.178 37.4503 113.125 36.1366 113.125 34.1759V18.3109H119.227V47ZM145.936 23.5726H137.753V47H131.271V23.5726H123.128V18.3109H145.936V23.5726ZM160.4 47.5002C156.292 47.5002 152.944 46.1664 150.357 43.4989C147.769 40.818 146.476 37.3303 146.476 33.0356C146.476 28.5008 147.789 24.833 150.417 22.0321C153.044 19.2312 156.526 17.8307 160.86 17.8307C164.955 17.8307 168.263 19.1712 170.783 21.852C173.318 24.5329 174.585 28.0673 174.585 32.4554C174.585 36.9635 173.271 40.598 170.643 43.3588C168.029 46.1197 164.615 47.5002 160.4 47.5002ZM160.68 23.3925C158.413 23.3925 156.612 24.2461 155.278 25.9533C153.945 27.6472 153.278 29.8946 153.278 32.6955C153.278 35.5364 153.945 37.7837 155.278 39.4376C156.612 41.0915 158.359 41.9184 160.52 41.9184C162.748 41.9184 164.515 41.1181 165.822 39.5176C167.129 37.9038 167.782 35.6697 167.782 32.8155C167.782 29.8412 167.149 27.5272 165.882 25.8733C164.615 24.2194 162.881 23.3925 160.68 23.3925ZM178.046 45.8997V39.4976C179.206 40.4713 180.466 41.2048 181.827 41.6983C183.187 42.1785 184.561 42.4185 185.948 42.4185C186.762 42.4185 187.469 42.3452 188.069 42.1985C188.682 42.0518 189.189 41.8517 189.589 41.5983C190.003 41.3315 190.31 41.0248 190.51 40.678C190.71 40.3179 190.81 39.9311 190.81 39.5176C190.81 38.9574 190.65 38.4573 190.33 38.0171C190.01 37.577 189.569 37.1702 189.009 36.7968C188.462 36.4233 187.809 36.0632 187.049 35.7164C186.288 35.3696 185.468 35.0162 184.588 34.6561C182.347 33.7225 180.673 32.5821 179.566 31.235C178.473 29.8879 177.926 28.2607 177.926 26.3534C177.926 24.8596 178.226 23.5792 178.826 22.5122C179.426 21.4319 180.24 20.5449 181.267 19.8514C182.307 19.1578 183.507 18.651 184.868 18.3309C186.228 17.9975 187.669 17.8307 189.189 17.8307C190.683 17.8307 192.003 17.9241 193.15 18.1108C194.311 18.2842 195.378 18.5576 196.352 18.9311V24.913C195.871 24.5796 195.345 24.2861 194.771 24.0327C194.211 23.7793 193.631 23.5726 193.03 23.4125C192.43 23.2391 191.83 23.1124 191.23 23.0324C190.643 22.9524 190.083 22.9124 189.549 22.9124C188.816 22.9124 188.149 22.9857 187.549 23.1324C186.949 23.2658 186.442 23.4592 186.028 23.7126C185.615 23.966 185.295 24.2728 185.068 24.6329C184.841 24.9797 184.728 25.3731 184.728 25.8133C184.728 26.2934 184.855 26.7269 185.108 27.1137C185.361 27.4871 185.721 27.8473 186.188 28.194C186.655 28.5275 187.222 28.8609 187.889 29.1944C188.556 29.5145 189.309 29.8479 190.15 30.1947C191.297 30.6748 192.324 31.1883 193.231 31.7352C194.151 32.2687 194.938 32.8755 195.591 33.5557C196.245 34.236 196.745 35.0162 197.092 35.8965C197.439 36.7634 197.612 37.7771 197.612 38.9374C197.612 40.5379 197.305 41.885 196.692 42.9787C196.091 44.0591 195.271 44.9393 194.231 45.6196C193.191 46.2864 191.977 46.7666 190.59 47.06C189.216 47.3534 187.762 47.5002 186.228 47.5002C184.654 47.5002 183.154 47.3668 181.727 47.1C180.313 46.8333 179.086 46.4332 178.046 45.8997ZM214.457 47.5002C210.349 47.5002 207.002 46.1664 204.414 43.4989C201.827 40.818 200.533 37.3303 200.533 33.0356C200.533 28.5008 201.847 24.833 204.474 22.0321C207.102 19.2312 210.583 17.8307 214.917 17.8307C219.012 17.8307 222.32 19.1712 224.841 21.852C227.375 24.5329 228.642 28.0673 228.642 32.4554C228.642 36.9635 227.328 40.598 224.701 43.3588C222.086 46.1197 218.672 47.5002 214.457 47.5002ZM214.737 23.3925C212.47 23.3925 210.669 24.2461 209.336 25.9533C208.002 27.6472 207.335 29.8946 207.335 32.6955C207.335 35.5364 208.002 37.7837 209.336 39.4376C210.669 41.0915 212.417 41.9184 214.577 41.9184C216.805 41.9184 218.572 41.1181 219.879 39.5176C221.186 37.9038 221.84 35.6697 221.84 32.8155C221.84 29.8412 221.206 27.5272 219.939 25.8733C218.672 24.2194 216.938 23.3925 214.737 23.3925Z" fill="#A864CD"/>
<path d="M135.413 62H133.829L133.37 60.5643H131.075L130.62 62H129.045L131.394 55.5463H133.118L135.413 62ZM133.037 59.4482L132.344 57.279C132.293 57.117 132.257 56.9234 132.236 56.6984H132.2C132.185 56.8874 132.147 57.075 132.087 57.261L131.385 59.4482H133.037ZM141.318 59.2052C141.318 61.1434 140.415 62.1125 138.609 62.1125C136.856 62.1125 135.98 61.1659 135.98 59.2727V55.5463H137.438V59.2907C137.438 60.3348 137.846 60.8569 138.663 60.8569C139.464 60.8569 139.864 60.3528 139.864 59.3447V55.5463H141.318V59.2052ZM147.258 56.7299H145.418V62H143.96V56.7299H142.128V55.5463H147.258V56.7299ZM150.512 62.1125C149.588 62.1125 148.835 61.8125 148.253 61.2124C147.671 60.6093 147.38 59.8248 147.38 58.8587C147.38 57.8385 147.676 57.0135 148.267 56.3834C148.858 55.7533 149.641 55.4383 150.616 55.4383C151.537 55.4383 152.281 55.7398 152.848 56.3429C153.418 56.946 153.703 57.741 153.703 58.7281C153.703 59.7423 153.408 60.5598 152.817 61.1809C152.229 61.802 151.46 62.1125 150.512 62.1125ZM150.575 56.6894C150.065 56.6894 149.66 56.8814 149.36 57.2655C149.06 57.6465 148.91 58.1521 148.91 58.7822C148.91 59.4212 149.06 59.9268 149.36 60.2988C149.66 60.6709 150.053 60.8569 150.539 60.8569C151.04 60.8569 151.438 60.6769 151.732 60.3168C152.026 59.9538 152.173 59.4512 152.173 58.8092C152.173 58.1401 152.03 57.6195 151.745 57.2475C151.46 56.8754 151.07 56.6894 150.575 56.6894ZM158.78 59.7768V62H157.326V55.5463H159.603C161.229 55.5463 162.043 56.2319 162.043 57.603C162.043 58.2511 161.809 58.7762 161.341 59.1782C160.875 59.5772 160.253 59.7768 159.473 59.7768H158.78ZM158.78 56.6624V58.6741H159.351C160.125 58.6741 160.512 58.3351 160.512 57.657C160.512 56.994 160.125 56.6624 159.351 56.6624H158.78ZM168.114 62H166.53L166.071 60.5643H163.775L163.321 62H161.746L164.095 55.5463H165.818L168.114 62ZM165.737 59.4482L165.044 57.279C164.993 57.117 164.957 56.9234 164.936 56.6984H164.9C164.885 56.8874 164.848 57.075 164.788 57.261L164.086 59.4482H165.737ZM174.333 62H172.664L171.66 60.3393C171.585 60.2133 171.513 60.1008 171.444 60.0018C171.375 59.9028 171.305 59.8188 171.233 59.7498C171.164 59.6777 171.09 59.6237 171.012 59.5877C170.937 59.5487 170.855 59.5292 170.765 59.5292H170.373V62H168.919V55.5463H171.224C172.79 55.5463 173.573 56.1314 173.573 57.3015C173.573 57.5265 173.538 57.735 173.469 57.9271C173.4 58.1161 173.303 58.2871 173.177 58.4401C173.051 58.5931 172.898 58.7251 172.718 58.8362C172.541 58.9472 172.343 59.0342 172.124 59.0972V59.1152C172.22 59.1452 172.313 59.1947 172.403 59.2637C172.493 59.3297 172.58 59.4077 172.664 59.4977C172.748 59.5877 172.827 59.6852 172.902 59.7903C172.98 59.8923 173.051 59.9928 173.114 60.0918L174.333 62ZM170.373 56.6354V58.4311H171.003C171.315 58.4311 171.566 58.3411 171.755 58.1611C171.947 57.9781 172.043 57.7515 172.043 57.4815C172.043 56.9174 171.705 56.6354 171.03 56.6354H170.373ZM179.284 56.7299H177.443V62H175.985V56.7299H174.153V55.5463H179.284V56.7299ZM179.856 61.7525V60.3123C180.117 60.5313 180.4 60.6964 180.706 60.8074C181.012 60.9154 181.321 60.9694 181.633 60.9694C181.816 60.9694 181.975 60.9529 182.11 60.9199C182.248 60.8869 182.362 60.8419 182.452 60.7849C182.545 60.7249 182.614 60.6559 182.659 60.5778C182.704 60.4968 182.727 60.4098 182.727 60.3168C182.727 60.1908 182.691 60.0783 182.619 59.9793C182.547 59.8803 182.448 59.7888 182.322 59.7048C182.199 59.6207 182.052 59.5397 181.881 59.4617C181.71 59.3837 181.525 59.3042 181.327 59.2232C180.823 59.0132 180.447 58.7566 180.198 58.4536C179.952 58.1506 179.829 57.7845 179.829 57.3555C179.829 57.0195 179.896 56.7314 180.031 56.4914C180.166 56.2484 180.349 56.0489 180.58 55.8928C180.814 55.7368 181.084 55.6228 181.39 55.5508C181.696 55.4758 182.02 55.4383 182.362 55.4383C182.698 55.4383 182.995 55.4593 183.253 55.5013C183.514 55.5403 183.754 55.6018 183.973 55.6858V57.0315C183.865 56.9565 183.747 56.8904 183.618 56.8334C183.492 56.7764 183.361 56.7299 183.226 56.6939C183.091 56.6549 182.956 56.6264 182.821 56.6084C182.689 56.5904 182.563 56.5814 182.443 56.5814C182.278 56.5814 182.128 56.5979 181.993 56.6309C181.858 56.6609 181.744 56.7044 181.651 56.7614C181.558 56.8184 181.486 56.8874 181.435 56.9685C181.384 57.0465 181.359 57.135 181.359 57.234C181.359 57.342 181.387 57.4395 181.444 57.5265C181.501 57.6105 181.582 57.6915 181.687 57.7695C181.792 57.8445 181.92 57.9196 182.07 57.9946C182.22 58.0666 182.389 58.1416 182.578 58.2196C182.836 58.3276 183.067 58.4431 183.271 58.5661C183.478 58.6861 183.655 58.8227 183.802 58.9757C183.949 59.1287 184.062 59.3042 184.14 59.5022C184.218 59.6973 184.257 59.9253 184.257 60.1863C184.257 60.5463 184.188 60.8494 184.05 61.0954C183.915 61.3384 183.73 61.5364 183.496 61.6895C183.262 61.8395 182.989 61.9475 182.677 62.0135C182.368 62.0795 182.041 62.1125 181.696 62.1125C181.342 62.1125 181.005 62.0825 180.684 62.0225C180.366 61.9625 180.09 61.8725 179.856 61.7525Z" fill="white"/>
<path d="M122.881 59.7284C122.542 59.7284 122.251 59.6069 122.008 59.3639C121.768 59.1208 121.648 58.8283 121.648 58.4863C121.648 58.1442 121.768 57.8532 122.008 57.6132C122.248 57.3731 122.539 57.2531 122.881 57.2531C123.223 57.2531 123.516 57.3746 123.759 57.6177C124.005 57.8577 124.128 58.1472 124.128 58.4863C124.128 58.8253 124.005 59.1178 123.759 59.3639C123.516 59.6069 123.223 59.7284 122.881 59.7284Z" fill="white"/>
<path d="M85.0919 62H83.6562V58.1386C83.6562 57.7215 83.6742 57.261 83.7102 56.7569H83.6742C83.5992 57.153 83.5317 57.438 83.4717 57.612L81.9595 62H80.7714L79.2322 57.657C79.1902 57.54 79.1227 57.24 79.0297 56.7569H78.9892C79.0282 57.393 79.0477 57.9511 79.0477 58.4311V62H77.7381V55.5463H79.8668L81.1855 59.3717C81.2905 59.6777 81.367 59.9853 81.415 60.2943H81.442C81.523 59.9373 81.6085 59.6267 81.6985 59.3627L83.0172 55.5463H85.0919V62ZM89.2863 62.1125C88.3622 62.1125 87.6092 61.8125 87.0271 61.2124C86.445 60.6093 86.154 59.8248 86.154 58.8587C86.154 57.8385 86.4495 57.0135 87.0406 56.3834C87.6317 55.7533 88.4147 55.4383 89.3898 55.4383C90.3109 55.4383 91.055 55.7398 91.6221 56.3429C92.1921 56.946 92.4772 57.741 92.4772 58.7281C92.4772 59.7423 92.1816 60.5598 91.5906 61.1809C91.0025 61.802 90.2344 62.1125 89.2863 62.1125ZM89.3493 56.6894C88.8393 56.6894 88.4342 56.8814 88.1342 57.2655C87.8342 57.6465 87.6842 58.1521 87.6842 58.7822C87.6842 59.4212 87.8342 59.9268 88.1342 60.2988C88.4342 60.6709 88.8273 60.8569 89.3133 60.8569C89.8144 60.8569 90.2119 60.6769 90.506 60.3168C90.8 59.9538 90.947 59.4512 90.947 58.8092C90.947 58.1401 90.8045 57.6195 90.5195 57.2475C90.2344 56.8754 89.8444 56.6894 89.3493 56.6894ZM97.7157 56.7299H95.875V62H94.4169V56.7299H92.5852V55.5463H97.7157V56.7299ZM100.97 62.1125C100.046 62.1125 99.2924 61.8125 98.7104 61.2124C98.1283 60.6093 97.8373 59.8248 97.8373 58.8587C97.8373 57.8385 98.1328 57.0135 98.7239 56.3834C99.3149 55.7533 100.098 55.4383 101.073 55.4383C101.994 55.4383 102.738 55.7398 103.305 56.3429C103.875 56.946 104.16 57.741 104.16 58.7281C104.16 59.7423 103.865 60.5598 103.274 61.1809C102.686 61.802 101.918 62.1125 100.97 62.1125ZM101.033 56.6894C100.523 56.6894 100.118 56.8814 99.8175 57.2655C99.5174 57.6465 99.3674 58.1521 99.3674 58.7822C99.3674 59.4212 99.5174 59.9268 99.8175 60.2988C100.118 60.6709 100.511 60.8569 100.997 60.8569C101.498 60.8569 101.895 60.6769 102.189 60.3168C102.483 59.9538 102.63 59.4512 102.63 58.8092C102.63 58.1401 102.488 57.6195 102.203 57.2475C101.918 56.8754 101.528 56.6894 101.033 56.6894ZM110.65 62H108.98L107.977 60.3393C107.902 60.2133 107.83 60.1008 107.761 60.0018C107.692 59.9028 107.621 59.8188 107.549 59.7498C107.48 59.6777 107.407 59.6237 107.329 59.5877C107.254 59.5487 107.171 59.5292 107.081 59.5292H106.69V62H105.236V55.5463H107.54C109.106 55.5463 109.89 56.1314 109.89 57.3015C109.89 57.5265 109.855 57.735 109.786 57.9271C109.717 58.1161 109.62 58.2871 109.494 58.4401C109.368 58.5931 109.214 58.7251 109.034 58.8362C108.857 58.9472 108.659 59.0342 108.44 59.0972V59.1152C108.536 59.1452 108.629 59.1947 108.719 59.2637C108.809 59.3297 108.896 59.4077 108.98 59.4977C109.064 59.5877 109.144 59.6852 109.219 59.7903C109.297 59.8923 109.368 59.9928 109.431 60.0918L110.65 62ZM106.69 56.6354V58.4311H107.32C107.632 58.4311 107.882 58.3411 108.071 58.1611C108.263 57.9781 108.359 57.7515 108.359 57.4815C108.359 56.9174 108.022 56.6354 107.347 56.6354H106.69ZM110.961 61.7525V60.3123C111.222 60.5313 111.505 60.6964 111.811 60.8074C112.117 60.9154 112.426 60.9694 112.738 60.9694C112.921 60.9694 113.08 60.9529 113.215 60.9199C113.353 60.8869 113.467 60.8419 113.557 60.7849C113.65 60.7249 113.719 60.6559 113.764 60.5778C113.809 60.4968 113.832 60.4098 113.832 60.3168C113.832 60.1908 113.796 60.0783 113.724 59.9793C113.652 59.8803 113.553 59.7888 113.427 59.7048C113.304 59.6207 113.157 59.5397 112.986 59.4617C112.815 59.3837 112.63 59.3042 112.432 59.2232C111.928 59.0132 111.552 58.7566 111.303 58.4536C111.057 58.1506 110.934 57.7845 110.934 57.3555C110.934 57.0195 111.001 56.7314 111.136 56.4914C111.271 56.2484 111.454 56.0489 111.685 55.8928C111.919 55.7368 112.189 55.6228 112.495 55.5508C112.801 55.4758 113.125 55.4383 113.467 55.4383C113.803 55.4383 114.101 55.4593 114.359 55.5013C114.62 55.5403 114.86 55.6018 115.079 55.6858V57.0315C114.971 56.9565 114.852 56.8904 114.723 56.8334C114.597 56.7764 114.467 56.7299 114.332 56.6939C114.197 56.6549 114.062 56.6264 113.927 56.6084C113.794 56.5904 113.668 56.5814 113.548 56.5814C113.383 56.5814 113.233 56.5979 113.098 56.6309C112.963 56.6609 112.849 56.7044 112.756 56.7614C112.663 56.8184 112.591 56.8874 112.54 56.9685C112.489 57.0465 112.464 57.135 112.464 57.234C112.464 57.342 112.492 57.4395 112.549 57.5265C112.606 57.6105 112.687 57.6915 112.792 57.7695C112.897 57.8445 113.025 57.9196 113.175 57.9946C113.325 58.0666 113.494 58.1416 113.683 58.2196C113.942 58.3276 114.173 58.4431 114.377 58.5661C114.584 58.6861 114.761 58.8227 114.908 58.9757C115.055 59.1287 115.167 59.3042 115.245 59.5022C115.323 59.6973 115.362 59.9253 115.362 60.1863C115.362 60.5463 115.293 60.8494 115.155 61.0954C115.02 61.3384 114.836 61.5364 114.602 61.6895C114.368 61.8395 114.095 61.9475 113.782 62.0135C113.473 62.0795 113.146 62.1125 112.801 62.1125C112.447 62.1125 112.11 62.0825 111.789 62.0225C111.471 61.9625 111.195 61.8725 110.961 61.7525Z" fill="white"/>
</g>
<path d="M67.036 56.5H9.54102L23.541 31.5L9.54102 5.5H255.541L240.541 31.5L255.541 56.5H195.036" stroke="white" stroke-width="2"/>
<mask id="mask1_1_67" style="mask-type:luminance" maskUnits="userSpaceOnUse" x="0" y="0" width="266" height="67">
<path d="M265.115 0H0V66.108H265.115V0Z" fill="white"/>
</mask>
<g mask="url(#mask1_1_67)">
<path d="M67.036 60.5H2.54099L18.541 31.5L2.54099 1.5H262.541L245.541 31.5L261.541 60.5H195.041" stroke="white" stroke-width="3"/>
</g>
<mask id="mask2_1_67" style="mask-type:luminance" maskUnits="userSpaceOnUse" x="0" y="0" width="266" height="67">
<path d="M265.115 0H0V66.108H265.115V0Z" fill="white"/>
</mask>
<g mask="url(#mask2_1_67)">
<path d="M67.036 60.5H2.54099L18.541 31.5L2.54099 1.5H262.541L245.541 31.5L261.541 60.5H195.041" stroke="white" stroke-width="3"/>
</g>
</g>
<defs>
<clipPath id="clip0_1_67">
<rect width="265.115" height="66.108" fill="white"/>
</clipPath>
</defs>
</svg>
