<svg width="167" height="34" xmlns="http://www.w3.org/2000/svg" xmlns:xlink="http://www.w3.org/1999/xlink" xml:space="preserve" overflow="hidden"><defs><clipPath id="clip0"><rect x="0" y="0" width="167" height="34"/></clipPath></defs><g clip-path="url(#clip0)"><path d="M163 0C165.209 -8.88178e-16 167 1.79086 167 4L167 30C167 32.2091 165.209 34 163 34L4 34C1.79086 34 -4.44089e-16 32.2091 -4.44089e-16 30L-4.44089e-16 4C-1.33227e-15 1.79086 1.79086 -4.44089e-16 4 -4.44089e-16Z" fill="#0078D4"/><path d="M50.2964 23 50.2964 12.4971 53.3286 12.4971C57.2007 12.4971 59.1367 14.2036 59.1367 17.6167 59.1367 19.2378 58.5996 20.5415 57.5254 21.5278 56.4512 22.5093 55.0107 23 53.2041 23L50.2964 23ZM52.0322 13.9766 52.0322 21.5278 53.4238 21.5278C54.6494 21.5278 55.6016 21.1909 56.2803 20.5171 56.9639 19.8433 57.3057 18.8911 57.3057 17.6606 57.3057 15.2046 56.0337 13.9766 53.4897 13.9766L52.0322 13.9766ZM67.2227 19.7114 62.1104 19.7114C62.1299 20.4048 62.3423 20.9395 62.7476 21.3154 63.1577 21.6914 63.7192 21.8794 64.4321 21.8794 65.2329 21.8794 65.9678 21.6401 66.6367 21.1616L66.6367 22.5312C65.9531 22.9609 65.0498 23.1758 63.9268 23.1758 62.8232 23.1758 61.9565 22.8364 61.3267 22.1577 60.7017 21.4741 60.3892 20.5146 60.3892 19.2793 60.3892 18.1123 60.7334 17.1626 61.4219 16.4302 62.1152 15.6929 62.9746 15.3242 64 15.3242 65.0254 15.3242 65.8188 15.6538 66.3804 16.313 66.9419 16.9722 67.2227 17.8877 67.2227 19.0596L67.2227 19.7114ZM65.582 18.5103C65.5771 17.8999 65.4331 17.4263 65.1499 17.0894 64.8667 16.7476 64.4761 16.5767 63.978 16.5767 63.4897 16.5767 63.0747 16.7549 62.7329 17.1113 62.396 17.4678 62.1885 17.9341 62.1104 18.5103L65.582 18.5103ZM70.5698 21.894 70.5405 21.894 70.5405 26.4497 68.8413 26.4497 68.8413 15.5 70.5405 15.5 70.5405 16.8184 70.5698 16.8184C71.1509 15.8223 72.0005 15.3242 73.1187 15.3242 74.0708 15.3242 74.813 15.6587 75.3452 16.3276 75.8774 16.9966 76.1436 17.895 76.1436 19.0229 76.1436 20.2729 75.8433 21.2739 75.2427 22.0259 74.6421 22.7778 73.8218 23.1538 72.7817 23.1538 71.8247 23.1538 71.0874 22.7339 70.5698 21.894ZM70.5259 18.9351 70.5259 19.8652C70.5259 20.4121 70.6992 20.876 71.0459 21.2568 71.3975 21.6377 71.8418 21.8281 72.3789 21.8281 73.0088 21.8281 73.502 21.584 73.8584 21.0957 74.2197 20.6025 74.4004 19.9165 74.4004 19.0376 74.4004 18.3003 74.2319 17.7241 73.895 17.3091 73.563 16.8892 73.1113 16.6792 72.54 16.6792 71.9346 16.6792 71.4463 16.894 71.0752 17.3237 70.709 17.7534 70.5259 18.2905 70.5259 18.9351ZM79.5859 23 77.8794 23 77.8794 11.8965 79.5859 11.8965 79.5859 23ZM85.1304 23.1758C83.9731 23.1758 83.0479 22.8267 82.3545 22.1284 81.666 21.4253 81.3218 20.4951 81.3218 19.3379 81.3218 18.0781 81.6807 17.0942 82.3984 16.3862 83.1211 15.6782 84.0928 15.3242 85.3135 15.3242 86.4854 15.3242 87.3984 15.6685 88.0527 16.3569 88.707 17.0454 89.0342 18 89.0342 19.2207 89.0342 20.417 88.6802 21.3765 87.9722 22.0991 87.269 22.8169 86.3218 23.1758 85.1304 23.1758ZM85.2109 16.6792C84.5469 16.6792 84.022 16.9111 83.6362 17.375 83.2505 17.8389 83.0576 18.4785 83.0576 19.2939 83.0576 20.0801 83.2529 20.7002 83.6436 21.1543 84.0342 21.6035 84.5566 21.8281 85.2109 21.8281 85.8799 21.8281 86.3926 21.606 86.749 21.1616 87.1104 20.7173 87.291 20.085 87.291 19.2646 87.291 18.4395 87.1104 17.8022 86.749 17.353 86.3926 16.9038 85.8799 16.6792 85.2109 16.6792ZM97.2666 15.5 93.8828 24.2012C93.1797 25.7539 92.1934 26.5303 90.9238 26.5303 90.5674 26.5303 90.2695 26.4985 90.0303 26.4351L90.0303 25.0215C90.2988 25.1094 90.543 25.1533 90.7627 25.1533 91.3975 25.1533 91.8711 24.8408 92.1836 24.2158L92.689 22.9854 89.708 15.5 91.5903 15.5 93.3774 20.9492C93.397 21.0176 93.4409 21.1982 93.5093 21.4912L93.5459 21.4912C93.5703 21.3789 93.6143 21.2031 93.6777 20.9639L95.5527 15.5 97.2666 15.5ZM106.107 22.9268C105.824 23.083 105.45 23.1611 104.986 23.1611 103.673 23.1611 103.016 22.4287 103.016 20.9639L103.016 16.5254 101.727 16.5254 101.727 15.5 103.016 15.5 103.016 13.6689 104.217 13.2808 104.217 15.5 106.107 15.5 106.107 16.5254 104.217 16.5254 104.217 20.7515C104.217 21.2544 104.303 21.6133 104.474 21.8281 104.645 22.043 104.928 22.1504 105.323 22.1504 105.626 22.1504 105.887 22.0674 106.107 21.9014L106.107 22.9268ZM110.846 23.1758C109.737 23.1758 108.851 22.8267 108.187 22.1284 107.528 21.4253 107.198 20.4951 107.198 19.3379 107.198 18.0781 107.542 17.0942 108.231 16.3862 108.919 15.6782 109.85 15.3242 111.021 15.3242 112.14 15.3242 113.011 15.6685 113.636 16.3569 114.266 17.0454 114.581 18 114.581 19.2207 114.581 20.417 114.242 21.3765 113.563 22.0991 112.889 22.8169 111.983 23.1758 110.846 23.1758ZM110.934 16.335C110.162 16.335 109.552 16.5986 109.103 17.126 108.653 17.6484 108.429 18.3711 108.429 19.2939 108.429 20.1826 108.656 20.8833 109.11 21.396 109.564 21.9087 110.172 22.165 110.934 22.165 111.71 22.165 112.306 21.9136 112.721 21.4106 113.141 20.9077 113.351 20.1924 113.351 19.2646 113.351 18.3271 113.141 17.6045 112.721 17.0967 112.306 16.5889 111.71 16.335 110.934 16.335ZM128.907 23 127.545 23 126.432 20.0557 121.979 20.0557 120.931 23 119.562 23 123.59 12.4971 124.864 12.4971 128.907 23ZM126.029 18.9497 124.381 14.4746C124.327 14.3281 124.273 14.0938 124.22 13.7715L124.19 13.7715C124.142 14.0693 124.085 14.3037 124.022 14.4746L122.389 18.9497 126.029 18.9497ZM135.528 15.8442 131.09 21.9746 135.484 21.9746 135.484 23 129.325 23 129.325 22.6265 133.763 16.5254 129.742 16.5254 129.742 15.5 135.528 15.5 135.528 15.8442ZM143.146 23 141.944 23 141.944 21.8135 141.915 21.8135C141.417 22.7217 140.646 23.1758 139.601 23.1758 137.813 23.1758 136.92 22.1113 136.92 19.9824L136.92 15.5 138.114 15.5 138.114 19.792C138.114 21.374 138.719 22.165 139.93 22.165 140.516 22.165 140.997 21.9502 141.373 21.5205 141.754 21.0859 141.944 20.5195 141.944 19.8213L141.944 15.5 143.146 15.5 143.146 23ZM149.488 16.7158C149.278 16.5547 148.976 16.4741 148.58 16.4741 148.067 16.4741 147.638 16.7158 147.291 17.1992 146.949 17.6826 146.778 18.3418 146.778 19.1768L146.778 23 145.577 23 145.577 15.5 146.778 15.5 146.778 17.0454 146.808 17.0454C146.979 16.5181 147.24 16.1079 147.591 15.8149 147.943 15.5171 148.336 15.3682 148.771 15.3682 149.083 15.3682 149.322 15.4023 149.488 15.4707L149.488 16.7158ZM156.82 19.5503 151.524 19.5503C151.544 20.3853 151.769 21.0298 152.198 21.4839 152.628 21.938 153.219 22.165 153.971 22.165 154.815 22.165 155.592 21.8867 156.3 21.3301L156.3 22.458C155.641 22.9365 154.769 23.1758 153.685 23.1758 152.625 23.1758 151.793 22.8364 151.188 22.1577 150.582 21.4741 150.279 20.5146 150.279 19.2793 150.279 18.1123 150.609 17.1626 151.268 16.4302 151.932 15.6929 152.755 15.3242 153.736 15.3242 154.718 15.3242 155.477 15.6416 156.014 16.2764 156.551 16.9111 156.82 17.7925 156.82 18.9204L156.82 19.5503ZM155.589 18.5322C155.584 17.8389 155.416 17.2993 155.084 16.9136 154.757 16.5278 154.3 16.335 153.714 16.335 153.148 16.335 152.667 16.5376 152.271 16.9429 151.876 17.3481 151.632 17.8779 151.539 18.5322L155.589 18.5322Z" fill="#FFFFFF"/><path d="M24.1781 6.18242 24.1781 6.18242 24.1781 6.18242 31.1781 6.18242C31.7781 6.18242 32.3781 6.58242 32.5781 7.18242L38.6781 25.1824C38.9781 26.1824 38.2781 27.1824 37.2781 27.1824L30.3781 27.1824 30.3781 27.1824C30.3781 27.1824 30.2781 27.1824 30.2781 27.1824L30.2781 27.1824C29.9781 27.1824 29.6781 27.0824 29.3781 26.8824L24.7781 23.4824 23.8781 26.1824C23.6781 26.7824 23.0781 27.1824 22.4781 27.1824L18.0781 27.1824C17.0781 27.1824 16.3781 26.1824 16.6781 25.1824L22.6781 7.18242C22.9781 6.58242 23.4781 6.18242 24.1781 6.18242ZM21.5781 19.8824 29.9781 26.0824C30.0781 26.1824 30.1781 26.1824 30.2781 26.1824L30.2781 26.1824C30.5781 26.1824 30.8781 25.8824 30.7781 25.4824L27.3781 15.4824 26.0781 18.7824 25.9781 19.1824 25.6781 19.1824 20.6781 19.1824ZM37.2781 26.1824 31.6781 26.1824C31.7781 25.8824 31.7781 25.5824 31.6781 25.1824L25.6781 7.18242 25.6781 7.18242 31.2781 7.18242C31.4781 7.18242 31.6781 7.28242 31.7781 7.48242L37.8781 25.4824C37.8781 25.8824 37.5781 26.1824 37.2781 26.1824Z" fill="#FFFFFF" fill-rule="evenodd"/></g></svg>