<svg width="574" height="143" xmlns="http://www.w3.org/2000/svg" xmlns:xlink="http://www.w3.org/1999/xlink" xml:space="preserve" overflow="hidden"><g transform="translate(-353 -273)"><text fill="#51B60D" font-family="Segoe UI,Segoe UI_MSFontService,sans-serif" font-weight="700" font-size="41" transform="matrix(2.1625 0 0 2.16313 427.025 372)">C</text><text fill="#51B60D" font-family="Segoe UI,Segoe UI_MSFontService,sans-serif" font-weight="700" font-size="41" transform="matrix(2.1625 0 0 2.16313 482.187 372)">ON</text><text fill="#51B60D" font-family="Segoe UI,Segoe UI_MSFontService,sans-serif" font-weight="700" font-size="41" transform="matrix(2.1625 0 0 2.16313 618.424 372)">T</text><text fill="#51B60D" font-family="Segoe UI,Segoe UI_MSFontService,sans-serif" font-weight="700" font-size="41" transform="matrix(2.1625 0 0 2.16313 667.046 372)">OSO</text><text fill="#FFFFFF" font-family="Segoe UI,Segoe UI_MSFontService,sans-serif" font-weight="700" font-size="9" transform="matrix(2.1625 0 0 2.16313 506.795 407)">G</text><text fill="#FFFFFF" font-family="Segoe UI,Segoe UI_MSFontService,sans-serif" font-weight="700" font-size="9" transform="matrix(2.1625 0 0 2.16313 519.77 407)">R</text><text fill="#FFFFFF" font-family="Segoe UI,Segoe UI_MSFontService,sans-serif" font-weight="700" font-size="9" transform="matrix(2.1625 0 0 2.16313 532.566 407)">OCERIES</text><text fill="#FFFFFF" font-family="Segoe UI,Segoe UI_MSFontService,sans-serif" font-weight="700" font-size="9" transform="matrix(2.1625 0 0 2.16313 618.556 407)">•</text><text fill="#FFFFFF" font-family="Segoe UI,Segoe UI_MSFontService,sans-serif" font-weight="700" font-size="9" transform="matrix(2.1625 0 0 2.16313 626.966 407)">DELI </text><text fill="#FFFFFF" font-family="Segoe UI,Segoe UI_MSFontService,sans-serif" font-weight="700" font-size="9" transform="matrix(2.1625 0 0 2.16313 674.541 407)">• </text><text fill="#FFFFFF" font-family="Segoe UI,Segoe UI_MSFontService,sans-serif" font-weight="700" font-size="9" transform="matrix(2.1625 0 0 2.16313 687.516 407)">BAKE</text><text fill="#FFFFFF" font-family="Segoe UI,Segoe UI_MSFontService,sans-serif" font-weight="700" font-size="9" transform="matrix(2.1625 0 0 2.16313 737.253 407)">R</text><text fill="#FFFFFF" font-family="Segoe UI,Segoe UI_MSFontService,sans-serif" font-weight="700" font-size="9" transform="matrix(2.1625 0 0 2.16313 750.049 407)">Y</text><path d="M144.965 122.181 20.6324 122.181 50.9074 68.1187 20.6324 11.8937 552.607 11.8937 520.17 68.1187 552.607 122.181 421.765 122.181" stroke="#FFFFFF" stroke-width="4.325" fill="none" transform="matrix(1 0 0 1.00029 353.345 273)"/><path d="M144.965 130.831 5.49491 130.831 40.0949 68.1187 5.49491 3.24375 567.745 3.24375 530.982 68.1187 565.582 130.831 421.776 130.831" stroke="#FFFFFF" stroke-width="6.4875" fill="none" transform="matrix(1 0 0 1.00029 353.345 273)"/></g></svg>